<svg id="visual" viewBox="0 0 400 400" width="400" height="400" xmlns="http://www.w3.org/2000/svg" xmlns:xlink="http://www.w3.org/1999/xlink" version="1.1"><path d="M0 89L11.2 90.3C22.3 91.7 44.7 94.3 66.8 84.3C89 74.3 111 51.7 133.2 43.7C155.3 35.7 177.7 42.3 200 55C222.3 67.7 244.7 86.3 266.8 83.7C289 81 311 57 333.2 61C355.3 65 377.7 97 388.8 113L400 129L400 0L388.8 0C377.7 0 355.3 0 333.2 0C311 0 289 0 266.8 0C244.7 0 222.3 0 200 0C177.7 0 155.3 0 133.2 0C111 0 89 0 66.8 0C44.7 0 22.3 0 11.2 0L0 0Z" fill="#f6a782"></path><path d="M0 141L11.2 146.3C22.3 151.7 44.7 162.3 66.8 171C89 179.7 111 186.3 133.2 188.3C155.3 190.3 177.7 187.7 200 176.3C222.3 165 244.7 145 266.8 149.7C289 154.3 311 183.7 333.2 189.7C355.3 195.7 377.7 178.3 388.8 169.7L400 161L400 127L388.8 111C377.7 95 355.3 63 333.2 59C311 55 289 79 266.8 81.7C244.7 84.3 222.3 65.7 200 53C177.7 40.3 155.3 33.7 133.2 41.7C111 49.7 89 72.3 66.8 82.3C44.7 92.3 22.3 89.7 11.2 88.3L0 87Z" fill="#f08e62"></path><path d="M0 229L11.2 221C22.3 213 44.7 197 66.8 201.7C89 206.3 111 231.7 133.2 235C155.3 238.3 177.7 219.7 200 213C222.3 206.3 244.7 211.7 266.8 216.3C289 221 311 225 333.2 225.7C355.3 226.3 377.7 223.7 388.8 222.3L400 221L400 159L388.8 167.7C377.7 176.3 355.3 193.7 333.2 187.7C311 181.7 289 152.3 266.8 147.7C244.7 143 222.3 163 200 174.3C177.7 185.7 155.3 188.3 133.2 186.3C111 184.3 89 177.7 66.8 169C44.7 160.3 22.3 149.7 11.2 144.3L0 139Z" fill="#dc764a"></path><path d="M0 237L11.2 232.3C22.3 227.7 44.7 218.3 66.8 224.3C89 230.3 111 251.7 133.2 254.3C155.3 257 177.7 241 200 236.3C222.3 231.7 244.7 238.3 266.8 241.7C289 245 311 245 333.2 248.3C355.3 251.7 377.7 258.3 388.8 261.7L400 265L400 219L388.8 220.3C377.7 221.7 355.3 224.3 333.2 223.7C311 223 289 219 266.8 214.3C244.7 209.7 222.3 204.3 200 211C177.7 217.7 155.3 236.3 133.2 233C111 229.7 89 204.3 66.8 199.7C44.7 195 22.3 211 11.2 219L0 227Z" fill="#b85f3a"></path><path d="M0 273L11.2 265.7C22.3 258.3 44.7 243.7 66.8 245C89 246.3 111 263.7 133.2 265.7C155.3 267.7 177.7 254.3 200 253.7C222.3 253 244.7 265 266.8 267C289 269 311 261 333.2 265.7C355.3 270.3 377.7 287.7 388.8 296.3L400 305L400 263L388.8 259.7C377.7 256.3 355.3 249.7 333.2 246.3C311 243 289 243 266.8 239.7C244.7 236.3 222.3 229.7 200 234.3C177.7 239 155.3 255 133.2 252.3C111 249.7 89 228.3 66.8 222.3C44.7 216.3 22.3 225.7 11.2 230.3L0 235Z" fill="#b15b37"></path><path d="M0 281L11.2 279C22.3 277 44.7 273 66.8 275C89 277 111 285 133.2 282.3C155.3 279.7 177.7 266.3 200 267C222.3 267.7 244.7 282.3 266.8 288.3C289 294.3 311 291.7 333.2 296.3C355.3 301 377.7 313 388.8 319L400 325L400 303L388.8 294.3C377.7 285.7 355.3 268.3 333.2 263.7C311 259 289 267 266.8 265C244.7 263 222.3 251 200 251.7C177.7 252.3 155.3 265.7 133.2 263.7C111 261.7 89 244.3 66.8 243C44.7 241.7 22.3 256.3 11.2 263.7L0 271Z" fill="#b85f3a"></path><path d="M0 333L11.2 331.7C22.3 330.3 44.7 327.7 66.8 324.3C89 321 111 317 133.2 311.7C155.3 306.3 177.7 299.7 200 307C222.3 314.3 244.7 335.7 266.8 341C289 346.3 311 335.7 333.2 336.3C355.3 337 377.7 349 388.8 355L400 361L400 323L388.8 317C377.7 311 355.3 299 333.2 294.3C311 289.7 289 292.3 266.8 286.3C244.7 280.3 222.3 265.7 200 265C177.7 264.3 155.3 277.7 133.2 280.3C111 283 89 275 66.8 273C44.7 271 22.3 275 11.2 277L0 279Z" fill="#dc764a"></path><path d="M0 345L11.2 348.3C22.3 351.7 44.7 358.3 66.8 358.3C89 358.3 111 351.7 133.2 347C155.3 342.3 177.7 339.7 200 343C222.3 346.3 244.7 355.7 266.8 363C289 370.3 311 375.7 333.2 379C355.3 382.3 377.7 383.7 388.8 384.3L400 385L400 359L388.8 353C377.7 347 355.3 335 333.2 334.3C311 333.7 289 344.3 266.8 339C244.7 333.7 222.3 312.3 200 305C177.7 297.7 155.3 304.3 133.2 309.7C111 315 89 319 66.8 322.3C44.7 325.7 22.3 328.3 11.2 329.7L0 331Z" fill="#f08e62"></path><path d="M0 401L11.2 401C22.3 401 44.7 401 66.8 401C89 401 111 401 133.2 401C155.3 401 177.7 401 200 401C222.3 401 244.7 401 266.8 401C289 401 311 401 333.2 401C355.3 401 377.7 401 388.8 401L400 401L400 383L388.8 382.3C377.7 381.7 355.3 380.3 333.2 377C311 373.7 289 368.3 266.8 361C244.7 353.7 222.3 344.3 200 341C177.7 337.7 155.3 340.3 133.2 345C111 349.7 89 356.3 66.8 356.3C44.7 356.3 22.3 349.7 11.2 346.3L0 343Z" fill="#f6a782"></path></svg>