<svg id="visual" viewBox="0 0 900 600" width="900" height="600" xmlns="http://www.w3.org/2000/svg" xmlns:xlink="http://www.w3.org/1999/xlink" version="1.1"><path d="M0 67L150 211L300 49L450 181L600 145L750 151L900 139L900 0L750 0L600 0L450 0L300 0L150 0L0 0Z" fill="#f1ab85"></path><path d="M0 175L150 289L300 205L450 235L600 211L750 337L900 403L900 137L750 149L600 143L450 179L300 47L150 209L0 65Z" fill="#e06b77"></path><path d="M0 319L150 367L300 337L450 301L600 349L750 463L900 433L900 401L750 335L600 209L450 233L300 203L150 287L0 173Z" fill="#c9477f"></path><path d="M0 571L150 583L300 493L450 535L600 559L750 523L900 481L900 431L750 461L600 347L450 299L300 335L150 365L0 317Z" fill="#e06b77"></path><path d="M0 601L150 601L300 601L450 601L600 601L750 601L900 601L900 479L750 521L600 557L450 533L300 491L150 581L0 569Z" fill="#f1ab85"></path></svg>