<svg id="visual" viewBox="0 0 400 400" width="400" height="400" xmlns="http://www.w3.org/2000/svg" xmlns:xlink="http://www.w3.org/1999/xlink" version="1.1"><rect x="0" y="0" width="400" height="400" fill="#eb8349"></rect><defs><linearGradient id="grad1_0" x1="0%" y1="0%" x2="100%" y2="100%"><stop offset="30%" stop-color="#ec5f79" stop-opacity="1"></stop><stop offset="70%" stop-color="#ec5f79" stop-opacity="1"></stop></linearGradient></defs><defs><linearGradient id="grad1_1" x1="0%" y1="0%" x2="100%" y2="100%"><stop offset="30%" stop-color="#ec5f79" stop-opacity="1"></stop><stop offset="70%" stop-color="#eb8349" stop-opacity="1"></stop></linearGradient></defs><defs><linearGradient id="grad2_0" x1="0%" y1="0%" x2="100%" y2="100%"><stop offset="30%" stop-color="#ec5f79" stop-opacity="1"></stop><stop offset="70%" stop-color="#ec5f79" stop-opacity="1"></stop></linearGradient></defs><defs><linearGradient id="grad2_1" x1="0%" y1="0%" x2="100%" y2="100%"><stop offset="30%" stop-color="#eb8349" stop-opacity="1"></stop><stop offset="70%" stop-color="#ec5f79" stop-opacity="1"></stop></linearGradient></defs><g transform="translate(400, 0)"><path d="M0 254.6C-6.8 206.6 -13.5 158.6 -32.8 164.8C-52 170.9 -83.8 231.2 -97.4 235.2C-111.1 239.2 -106.6 187 -103.9 155.5C-101.2 124 -100.3 113.1 -107.5 107.5C-114.6 101.9 -129.9 101.5 -144.7 96.7C-159.5 91.8 -173.9 82.4 -169.1 70C-164.2 57.6 -140 42.2 -151 30C-162.1 17.9 -208.3 8.9 -254.6 0L0 0Z" fill="#f16f5f"></path><path d="M0 127.3C-3.4 103.3 -6.8 79.3 -16.4 82.4C-26 85.5 -41.9 115.6 -48.7 117.6C-55.5 119.6 -53.3 93.5 -51.9 77.7C-50.6 62 -50.2 56.5 -53.7 53.7C-57.3 50.9 -64.9 50.8 -72.3 48.3C-79.8 45.9 -87 41.2 -84.5 35C-82.1 28.8 -70 21.1 -75.5 15C-81 8.9 -104.2 4.5 -127.3 0L0 0Z" fill="#ec5f79"></path></g><g transform="translate(0, 400)"><path d="M0 -254.6C3.7 -196.8 7.5 -139 29.8 -150.1C52.2 -161.1 93.3 -240.9 97.4 -235.2C101.6 -229.5 68.8 -138.2 78.9 -118.1C89 -98 141.9 -149 149.2 -149.2C156.5 -149.4 118.2 -98.8 118.9 -79.4C119.6 -60.1 159.5 -72 163.5 -67.7C167.6 -63.4 135.9 -42.9 145.2 -28.9C154.4 -14.9 204.5 -7.4 254.6 0L0 0Z" fill="#f16f5f"></path><path d="M0 -127.3C1.9 -98.4 3.7 -69.5 14.9 -75C26.1 -80.5 46.6 -120.5 48.7 -117.6C50.8 -114.7 34.4 -69.1 39.4 -59C44.5 -49 71 -74.5 74.6 -74.6C78.2 -74.7 59.1 -49.4 59.5 -39.7C59.8 -30.1 79.7 -36 81.8 -33.9C83.8 -31.7 68 -21.4 72.6 -14.4C77.2 -7.4 102.2 -3.7 127.3 0L0 0Z" fill="#ec5f79"></path></g></svg>