<svg id="visual" viewBox="0 0 960 300" width="960" height="300" xmlns="http://www.w3.org/2000/svg" xmlns:xlink="http://www.w3.org/1999/xlink" version="1.1"><path d="M0 118L26.7 118C53.3 118 106.7 118 160 128.7C213.3 139.3 266.7 160.7 320 176.8C373.3 193 426.7 204 480 198C533.3 192 586.7 169 640 158.2C693.3 147.3 746.7 148.7 800 139C853.3 129.3 906.7 108.7 933.3 98.3L960 88L960 0L933.3 0C906.7 0 853.3 0 800 0C746.7 0 693.3 0 640 0C586.7 0 533.3 0 480 0C426.7 0 373.3 0 320 0C266.7 0 213.3 0 160 0C106.7 0 53.3 0 26.7 0L0 0Z" fill="#2ed2b0" stroke-linecap="round" stroke-linejoin="miter"></path></svg>