<svg id="visual" viewBox="0 0 900 600" width="900" height="600" xmlns="http://www.w3.org/2000/svg" xmlns:xlink="http://www.w3.org/1999/xlink" version="1.1"><path d="M0 219L25 224.5C50 230 100 241 150 237C200 233 250 214 300 198.5C350 183 400 171 450 163.2C500 155.3 550 151.7 600 164C650 176.3 700 204.7 750 219.2C800 233.7 850 234.3 875 234.7L900 235L900 0L875 0C850 0 800 0 750 0C700 0 650 0 600 0C550 0 500 0 450 0C400 0 350 0 300 0C250 0 200 0 150 0C100 0 50 0 25 0L0 0Z" fill="#2ed2b0" stroke-linecap="round" stroke-linejoin="miter"></path></svg>